<?xml version="1.0" encoding="utf-8"?>

<svg version="1.1" xmlns="http://www.w3.org/2000/svg" xmlns:xlink="http://www.w3.org/1999/xlink" x="0px" y="0px"
	 viewBox="0 0 300 300" xml:space="preserve">
    <style>.cls-1{fill:#e2001a;}.cls-2{fill:#fff;}</style>

    <path class="cls-1" d="M200,.27V65.7L100.06.27V65.7L.16.27V300H299.84V65.7Z"/>
    <!-- <path class="cls-2" d="M34.42,162.26c0-4,1.93-6,5.06-6s4.89,2,4.89,6V178.7h8.36V162.26c0-4,1.93-6,5.06-6s4.9,2,4.9,6V178.7h8.36V159.51c0-7.1-3.74-10.84-10-10.84a12.14,12.14,0,0,0-9.68,4.68c-1.54-3-4.45-4.68-8.3-4.68-4.23,0-6.76,2.26-8.69,4.73v-4.18H26.06V178.7h8.36Z"/>
    <path class="cls-2" d="M86.67,179.25a11.36,11.36,0,0,0,8.91-3.74v3.19h8.08V161.6c0-8-4-12.71-13.14-12.71a26,26,0,0,0-11.44,2.37l2.09,6.38a21.67,21.67,0,0,1,8.14-1.6c4.18,0,6.32,1.93,6.32,5.39v.5a20.8,20.8,0,0,0-7.2-1.21c-7,0-11.88,3-11.88,9.4v.11C76.55,176.06,81.11,179.25,86.67,179.25Zm-2-9.46c0-2.64,2.2-4.07,5.78-4.07a13,13,0,0,1,5.33,1.1v1.48c0,3-2.64,5.17-6.54,5.17-2.7,0-4.57-1.32-4.57-3.57Z"/>

    <polygon class="cls-2" points="54.6 224.56 43 206.69 54.22 195.08 44.21 195.08 34.42 205.81 34.42 184.41 26.06 184.41 26.06 224.56 34.42 224.56 34.42 215.6 37.34 212.52 45.03 224.56 54.6 224.56"/>

    <path class="cls-2" d="M83.26,219.72l-4.79-4.23a9.67,9.67,0,0,1-7.15,3,6.83,6.83,0,0,1-7.2-5.77H84.63c.06-.77.11-1.27.11-2.09v-.11c0-8.36-4.51-16-14.35-16-8.58,0-14.58,6.93-14.58,15.35V210c0,9,6.55,15.23,15.4,15.23A14.75,14.75,0,0,0,83.26,219.72ZM70.39,201.24c3.52,0,5.72,2.53,6.21,6.27H64C64.67,203.72,66.92,201.24,70.39,201.24Z"/>
    <path class="cls-2" d="M99.32,201v-5.94H91v29.48h8.36V213.67c0-7,3.41-10.39,9-10.39h.44v-8.75C103.77,194.31,101,197,99.32,201Z"/>
    <path class="cls-2" d="M126.65,206.74c-3.19-1.1-6-1.87-6-3.52v-.11c0-1.15,1-2,3.08-2s5.06,1,8,2.75l3.19-5.78a20.45,20.45,0,0,0-11-3.41c-5.94,0-10.78,3.36-10.78,9.35v.11c0,5.72,4.68,7.65,8.8,8.86,3.24,1,6.1,1.59,6.1,3.41v.11c0,1.32-1.1,2.2-3.52,2.2a16.65,16.65,0,0,1-9.29-3.52l-3.57,5.5a20.62,20.62,0,0,0,12.64,4.45c6.38,0,11.28-3,11.28-9.51v-.11C135.56,210.1,130.77,208.12,126.65,206.74Z"/>

    <rect class="cls-2" x="26.45" y="230.83" width="8.36" height="40.15"/>

    <path class="cls-2" d="M54.88,241.17a26,26,0,0,0-11.44,2.36l2.09,6.38a21.66,21.66,0,0,1,8.14-1.59c4.18,0,6.32,1.92,6.32,5.39v.49a21,21,0,0,0-7.2-1.21c-7,0-11.88,3-11.88,9.41v.11c0,5.83,4.56,9,10.12,9a11.36,11.36,0,0,0,8.91-3.74V271H68V253.87C68,245.9,64,241.17,54.88,241.17Zm5.22,19.41c0,3-2.64,5.17-6.54,5.17-2.7,0-4.57-1.32-4.57-3.57v-.11c0-2.64,2.2-4.07,5.78-4.07a13,13,0,0,1,5.33,1.1Z"/>
    <path class="cls-2" d="M92.77,241a10.81,10.81,0,0,0-9.18,4.78v-14.9H75.23V271h8.36v-3.85a11.33,11.33,0,0,0,9.18,4.4c7,0,13.42-5.39,13.42-15.24v-.11C106.19,246.34,99.64,241,92.77,241Zm5.06,15.34c0,4.95-3.3,8.14-7.2,8.14s-7.15-3.24-7.15-8.14v-.11c0-4.89,3.24-8.14,7.15-8.14s7.2,3.25,7.2,8.14Z"/> -->
</svg>
