<?xml version="1.0" encoding="utf-8"?>
<!-- Generator: Adobe Illustrator 22.1.0, SVG Export Plug-In . SVG Version: 6.00 Build 0)  -->
<svg version="1.1" id="Calque_1" xmlns="http://www.w3.org/2000/svg" xmlns:xlink="http://www.w3.org/1999/xlink" x="0px" y="0px"
	 viewBox="0 0 361.3 170.1" style="enable-background:new 0 0 361.3 170.1;" xml:space="preserve">
<style type="text/css">
	.st0{fill:#E2071C;}
</style>
<g>
	<g>
		<path class="st0" d="M355.8,5.5v159.1H177.9V5.5H355.8 M361.3,0H172.5v170.1h188.8V0L361.3,0z"/>
	</g>
	<g>
		<g>
			<path class="st0" d="M46.9,97.6c2.7,0,4.3-2.1,4.3-4.5V93c0-2.4-1.8-4.6-4.3-4.6c-2.7,0-4.3,2.1-4.3,4.5V93
				C42.6,95.5,44.3,97.6,46.9,97.6z"/>
		</g>
		<g>
			<path class="st0" d="M97.3,114.2c-1.9,0-3.2,1.4-3.6,3.5h7.1C100.5,115.6,99.2,114.2,97.3,114.2z"/>
		</g>
		<g>
			<path class="st0" d="M88.7,140.5c-2.7,0-4.3,2.1-4.3,4.5v0.1c0,2.4,1.8,4.6,4.3,4.6c2.7,0,4.3-2.1,4.3-4.5v-0.1
				C93.1,142.7,91.3,140.5,88.7,140.5z"/>
		</g>
		<g>
			<path class="st0" d="M70.3,140.5c-2.7,0-4.3,2.1-4.3,4.5v0.1c0,2.4,1.8,4.6,4.3,4.6c2.7,0,4.3-2.1,4.3-4.5v-0.1
				C74.6,142.7,72.9,140.5,70.3,140.5z"/>
		</g>
		<g>
			<path class="st0" d="M23,61c-2.7,0-4.8,2.3-5.2,5.4h10.3C27.8,63.4,26.1,61,23,61z"/>
		</g>
		<g>
			<path class="st0" d="M0,0v170.1h170.1V0H0z M72.7,110.8h4.7v2.3c1.1-1.4,2.5-2.7,4.8-2.7c3.5,0,5.6,2.3,5.6,6.1v10.7h-4.7v-9.2
				c0-2.2-1-3.4-2.8-3.4c-1.8,0-2.9,1.1-2.9,3.4v9.2h-4.7V110.8z M57.2,84.7h4.7v2.3c1.1-1.4,2.5-2.7,4.8-2.7c3.5,0,5.6,2.3,5.6,6.1
				v10.7h-4.7V92c0-2.2-1-3.4-2.8-3.4c-1.8,0-2.9,1.1-2.9,3.4v9.2h-4.7V84.7z M65.4,108.9v-4.2h4.9v4.2H65.4z M70.3,110.8v16.5h-4.7
				v-16.5H70.3z M20.5,104.8v8.4c1.1-1.5,2.7-2.7,5.2-2.7c3.9,0,7.5,3,7.5,8.5v0.1c0,5.5-3.6,8.5-7.5,8.5c-2.5,0-4-1.1-5.2-2.5v2.2
				h-4.7v-22.5H20.5z M16.1,101.3V78.7h4.7v22.5H16.1z M32.5,101.7c-1.3,3.4-2.6,4.6-5.4,4.6c-1.7,0-3-0.4-4.2-1.1l1.6-3.4
				c0.6,0.4,1.4,0.6,2,0.6c0.8,0,1.2-0.2,1.6-1.1l-6.5-16.6h5L30.4,96L34,84.7h4.9L32.5,101.7z M37.9,93c0-4.8,3.8-8.6,9-8.6
				c5.1,0,8.9,3.8,8.9,8.5V93c0,4.7-3.8,8.6-9,8.6C41.7,101.6,37.9,97.8,37.9,93L37.9,93z M56.3,120.8c-2.3-0.7-4.9-1.8-4.9-5v-0.1
				c0-3.4,2.7-5.2,6-5.2c2.1,0,4.4,0.7,6.2,1.9l-1.8,3.2c-1.6-1-3.3-1.5-4.5-1.5c-1.1,0-1.7,0.5-1.7,1.1v0.1c0,0.9,1.6,1.4,3.4,2
				c2.3,0.8,5,1.9,5,4.9v0.1c0,3.7-2.7,5.3-6.3,5.3c-2.3,0-4.9-0.8-7.1-2.5l2-3.1c1.8,1.3,3.7,2,5.2,2c1.4,0,2-0.5,2-1.2v-0.1
				C59.8,121.7,58.2,121.3,56.3,120.8z M32.7,59.3H35V62c1-1.6,2.5-3,5.2-3c2.6,0,4.3,1.4,5.1,3.2c1.1-1.8,2.8-3.2,5.6-3.2
				c3.7,0,5.9,2.5,5.9,6.4v9.9h-2.4v-9.3c0-3.1-1.5-4.8-4.1-4.8c-2.4,0-4.4,1.8-4.4,4.9v9.2h-2.3v-9.4c0-3-1.6-4.8-4.1-4.8
				c-2.5,0-4.4,2.1-4.4,5v9.1h-2.4V59.3z M23.1,59c4.7,0,7.4,3.8,7.4,8.5c0,0.2,0,0.5,0,0.8H17.8c0.3,3.4,2.8,5.3,5.6,5.3
				c2.2,0,3.7-0.9,5-2.3l1.5,1.3c-1.6,1.8-3.5,3-6.6,3c-4.4,0-8-3.4-8-8.3C15.4,62.7,18.7,59,23.1,59z M28,148.3
				c0,3.7-2.7,5.3-6.3,5.3c-2.3,0-4.9-0.8-7.1-2.5l2-3.1c1.8,1.3,3.7,2,5.2,2c1.4,0,2-0.5,2-1.2v-0.1c0-1-1.6-1.4-3.4-1.9
				c-2.3-0.7-4.9-1.8-4.9-5v-0.1c0-3.4,2.7-5.2,6-5.2c2.1,0,4.4,0.7,6.2,1.9l-1.8,3.2c-1.6-1-3.3-1.5-4.5-1.5
				c-1.1,0-1.7,0.5-1.7,1.1v0.1c0,0.9,1.6,1.4,3.4,2C25.3,144.1,28,145.2,28,148.3L28,148.3z M37.1,153.7c-5,0-8.6-3.8-8.6-8.5v-0.1
				c0-4.7,3.6-8.6,8.7-8.6c3.1,0,5.1,1,6.6,2.8l-2.9,3.1c-1-1.1-2.1-1.8-3.8-1.8c-2.3,0-4,2.1-4,4.5v0.1c0,2.5,1.6,4.6,4.2,4.6
				c1.6,0,2.7-0.7,3.8-1.8l2.7,2.8C42.3,152.4,40.4,153.7,37.1,153.7z M40.2,127.6c-3.5,0-5.6-2.3-5.6-6.1v-10.7h4.7v9.2
				c0,2.2,1,3.4,2.8,3.4c1.8,0,2.9-1.1,2.9-3.4v-9.2h4.7v16.5H45V125C43.9,126.3,42.5,127.6,40.2,127.6z M60.1,153.3h-4.7v-9.2
				c0-2.2-1-3.4-2.8-3.4c-1.8,0-2.9,1.1-2.9,3.4v9.2h-4.7v-22.5h4.7v8.3c1.1-1.4,2.5-2.7,4.8-2.7c3.5,0,5.6,2.3,5.6,6.1V153.3z
				 M79.2,145.1c0,4.7-3.8,8.6-9,8.6c-5.1,0-8.9-3.8-8.9-8.5v-0.1c0-4.8,3.8-8.6,9-8.6C75.4,136.5,79.2,140.3,79.2,145.1L79.2,145.1
				z M97.7,145.1c0,4.7-3.8,8.6-9,8.6c-5.1,0-8.9-3.8-8.9-8.5v-0.1c0-4.8,3.8-8.6,9-8.6C93.9,136.5,97.7,140.3,97.7,145.1
				L97.7,145.1z M104,153.3h-4.7v-22.5h4.7V153.3z M105.2,120.7H93.7c0.5,2.1,1.9,3.2,4,3.2c1.6,0,2.7-0.5,4-1.7l2.7,2.4
				c-1.5,1.9-3.8,3.1-6.8,3.1c-5,0-8.6-3.5-8.6-8.5v-0.1c0-4.7,3.4-8.6,8.2-8.6c5.5,0,8.1,4.3,8.1,9
				C105.3,119.8,105.3,120.2,105.2,120.7z M112.6,127.6c-2.3,0-4.9-0.8-7.1-2.5l2-3.1c1.8,1.3,3.7,2,5.2,2c1.4,0,2-0.5,2-1.2v-0.1
				c0-1-1.6-1.4-3.4-1.9c-2.3-0.7-4.9-1.8-4.9-5v-0.1c0-3.4,2.7-5.2,6-5.2c2.1,0,4.4,0.7,6.2,1.9l-1.8,3.2c-1.6-1-3.3-1.5-4.5-1.5
				c-1.1,0-1.7,0.5-1.7,1.1v0.1c0,0.9,1.6,1.4,3.4,2c2.3,0.8,5,1.9,5,4.9v0.1C118.9,125.9,116.2,127.6,112.6,127.6z M132.1,122.3
				c0,3.7-2.7,5.3-6.3,5.3c-2.3,0-4.9-0.8-7.1-2.5l2-3.1c1.8,1.3,3.7,2,5.2,2c1.4,0,2-0.5,2-1.2v-0.1c0-1-1.6-1.4-3.4-1.9
				c-2.3-0.7-4.9-1.8-4.9-5v-0.1c0-3.4,2.7-5.2,6-5.2c2.1,0,4.4,0.7,6.2,1.9l-1.8,3.2c-1.6-1-3.3-1.5-4.5-1.5
				c-1.1,0-1.7,0.5-1.7,1.1v0.1c0,0.9,1.6,1.4,3.4,2C129.4,118.1,132.1,119.2,132.1,122.3L132.1,122.3z"/>
		</g>
		<g>
			<path class="st0" d="M24.5,123.6c2.2,0,4-1.8,4-4.6V119c0-2.7-1.9-4.6-4-4.6s-4,1.8-4,4.6v0.1C20.5,121.8,22.3,123.6,24.5,123.6z
				"/>
		</g>
	</g>
	<g>
		<g>
			<path class="st0" d="M191.2,136.9h4.7v2.3c1.1-1.4,2.5-2.7,4.9-2.7c2.2,0,3.8,1,4.7,2.6c1.4-1.7,3.2-2.6,5.4-2.6
				c3.5,0,5.6,2.1,5.6,6.1v10.8h-4.7v-9.2c0-2.2-1-3.4-2.7-3.4s-2.8,1.1-2.8,3.4v9.2h-4.7v-9.2c0-2.2-1-3.4-2.7-3.4
				s-2.8,1.1-2.8,3.4v9.2h-4.7V136.9z"/>
		</g>
		<g>
			<path class="st0" d="M217.3,148.7L217.3,148.7c0-3.7,2.7-5.3,6.7-5.3c1.7,0,2.9,0.3,4,0.7v-0.3c0-1.9-1.2-3-3.5-3
				c-1.8,0-3.1,0.3-4.6,0.9l-1.2-3.6c1.8-0.8,3.6-1.3,6.4-1.3c2.6,0,4.4,0.7,5.6,1.9c1.2,1.2,1.8,3.1,1.8,5.3v9.6H228v-1.8
				c-1.1,1.3-2.7,2.1-5,2.1C219.9,153.8,217.3,152,217.3,148.7z M228.1,147.6v-0.8c-0.8-0.4-1.9-0.6-3-0.6c-2,0-3.2,0.8-3.2,2.3v0.1
				c0,1.3,1,2,2.6,2C226.6,150.5,228.1,149.3,228.1,147.6z"/>
		</g>
		<g>
			<path class="st0" d="M234.4,130.9h4.7v12l5.5-6h5.6l-6.3,6.5l6.5,10H245l-4.3-6.8l-1.6,1.7v5h-4.7V130.9z"/>
		</g>
		<g>
			<path class="st0" d="M248.9,145.3L248.9,145.3c0-4.8,3.4-8.7,8.2-8.7c5.5,0,8.1,4.3,8.1,9c0,0.4,0,0.8-0.1,1.2h-11.5
				c0.5,2.1,1.9,3.2,4,3.2c1.6,0,2.7-0.5,4-1.7l2.7,2.4c-1.5,1.9-3.8,3.1-6.8,3.1C252.5,153.8,248.9,150.3,248.9,145.3z
				 M260.5,143.9c-0.3-2.1-1.5-3.5-3.5-3.5c-1.9,0-3.2,1.4-3.6,3.5H260.5z"/>
		</g>
		<g>
			<path class="st0" d="M266.4,136.9h4.7v3.3c1-2.3,2.5-3.8,5.3-3.6v4.9h-0.2c-3.1,0-5,1.9-5,5.8v6.1h-4.7V136.9z"/>
		</g>
		<g>
			<path class="st0" d="M275.8,151.3l2-3.1c1.8,1.3,3.7,2,5.2,2c1.4,0,2-0.5,2-1.2v-0.1c0-1-1.6-1.4-3.4-1.9c-2.3-0.7-4.9-1.8-4.9-5
				v-0.1c0-3.4,2.7-5.2,6-5.2c2.1,0,4.4,0.7,6.2,1.9l-1.8,3.2c-1.6-1-3.3-1.5-4.5-1.5c-1.1,0-1.7,0.5-1.7,1.1v0.1
				c0,0.9,1.6,1.4,3.4,2c2.3,0.8,5,1.9,5,4.9v0.1c0,3.7-2.7,5.3-6.3,5.3C280.6,153.8,278,153,275.8,151.3z"/>
		</g>
		<g>
			<path class="st0" d="M289.2,139.8c2.1-0.2,3.2-1.3,3-3.1h-1.9v-4.9h5v4.2c0,4.1-2,5.7-5.7,5.8L289.2,139.8z"/>
		</g>
		<g>
			<path class="st0" d="M304.3,130.9h4.7v22.5h-4.7V130.9z"/>
		</g>
		<g>
			<path class="st0" d="M310.2,148.7L310.2,148.7c0-3.7,2.7-5.3,6.7-5.3c1.7,0,2.9,0.3,4,0.7v-0.3c0-1.9-1.2-3-3.5-3
				c-1.8,0-3.1,0.3-4.6,0.9l-1.2-3.6c1.8-0.8,3.6-1.3,6.4-1.3c2.6,0,4.4,0.7,5.6,1.9c1.2,1.2,1.8,3.1,1.8,5.3v9.6h-4.5v-1.8
				c-1.1,1.3-2.7,2.1-5,2.1C312.8,153.8,310.2,152,310.2,148.7z M321,147.6v-0.8c-0.8-0.4-1.9-0.6-3-0.6c-2,0-3.2,0.8-3.2,2.3v0.1
				c0,1.3,1,2,2.6,2C319.5,150.5,321,149.3,321,147.6z"/>
		</g>
		<g>
			<path class="st0" d="M332,151.3v2.2h-4.7v-22.5h4.7v8.4c1.1-1.5,2.7-2.7,5.2-2.7c3.9,0,7.5,3,7.5,8.5v0.1c0,5.5-3.6,8.5-7.5,8.5
				C334.6,153.8,333.1,152.6,332,151.3z M340,145.2L340,145.2c0-2.8-1.8-4.6-4-4.6c-2.2,0-4,1.8-4,4.6v0.1c0,2.7,1.8,4.6,4,4.6
				C338.1,149.8,340,148,340,145.2z"/>
		</g>
	</g>
</g>
</svg>
